<?xml version="1.0" standalone="no"?>
<!DOCTYPE svg PUBLIC "-//W3C//DTD SVG 20010904//EN"
 "http://www.w3.org/TR/2001/REC-SVG-20010904/DTD/svg10.dtd">
<svg version="1.0" xmlns="http://www.w3.org/2000/svg"
 width="260.000000pt" height="260.000000pt" viewBox="0 0 260.000000 260.000000"
 preserveAspectRatio="xMidYMid meet">
<metadata>
Created by potrace 1.11, written by Peter Selinger 2001-2013
</metadata>
<g transform="translate(0.000000,260.000000) scale(0.100000,-0.100000)"
fill="#000000" stroke="none">
<path d="M0 1300 l0 -1300 1300 0 1300 0 0 1300 0 1300 -1300 0 -1300 0 0
-1300z m1008 749 l-3 -81 -132 1 -133 2 0 -356 0 -355 -110 0 -110 0 -2 353
-3 352 -137 3 -138 3 0 79 0 80 385 0 386 0 -3 -81z m515 -282 c100 -50 141
-150 103 -252 -17 -43 -84 -115 -108 -115 -21 0 5 -17 45 -30 20 -6 54 -28 75
-48 l37 -37 -35 -3 c-56 -6 -60 -14 -60 -126 0 -111 6 -126 52 -126 37 0 35
-12 -7 -49 -90 -79 -151 -91 -460 -91 l-245 0 0 456 0 455 273 -3 272 -3 58
-28z m887 -612 l0 -85 -140 0 -140 0 0 -365 0 -365 -115 0 -115 0 0 365 0 365
-140 0 -140 0 0 85 0 85 395 0 395 0 0 -85z"/>
<path d="M1160 1539 l0 -101 89 4 c113 4 144 23 149 87 6 81 -39 111 -170 111
l-68 0 0 -101z"/>
<path d="M1160 1166 l0 -116 75 0 c161 0 220 32 220 121 0 40 -5 54 -28 76
-26 27 -32 28 -147 31 l-120 4 0 -116z"/>
</g>
</svg>
